<svg xmlns="http://www.w3.org/2000/svg" fill="none" viewBox="0 0 60 19" height="19" width="60">
<path fill="#006633" d="M48.1142 5.27316C48.1142 7.90952 50.0628 9.51326 53.1363 10.6005C55.4691 11.4429 56.4022 12.2585 56.4022 13.6447C56.4022 15.1397 55.1946 16.1451 53.0537 16.1451C51.3249 16.1451 49.6509 15.6017 48.5805 14.9766L47.8124 17.7489C48.8279 18.3741 50.8585 18.9178 52.8343 18.9178C57.5821 18.9178 59.8325 16.3628 59.8325 13.4003C59.8325 10.7635 58.2956 9.15977 55.0847 7.96409C52.6149 7.01255 51.5445 6.36036 51.5445 4.94685C51.5445 3.85965 52.4503 2.74528 54.5908 2.74528C56.3196 2.74528 57.6096 3.26181 58.2956 3.61508L59.0915 0.924151C58.131 0.435012 56.6765 0 54.673 0C50.6389 0 48.1142 2.25592 48.1142 5.27316ZM0 9.62217C0 12.3944 0.933134 14.8136 2.57978 16.3628C4.33612 18.0208 6.72358 18.8091 9.85209 18.8091C12.2944 18.8091 14.5997 18.2111 15.78 17.776V8.50758H9.24851V11.1439H12.5143V15.7377C12.075 15.928 11.1967 16.091 9.96179 16.091C6.12 16.091 3.54022 13.6175 3.54022 9.45891C3.54022 5.19142 6.31187 2.88115 10.2638 2.88115C12.2122 2.88115 13.4472 3.20724 14.4625 3.66965L15.2035 0.9785C14.353 0.570884 12.5689 0.108698 10.2911 0.108698C4.17157 0.108698 0.0275373 3.8053 0 9.62217ZM31.781 0.29914V3.09877H37.05V18.6189H40.4257V3.09877H45.7496V0.29914H31.781Z" clip-rule="evenodd" fill-rule="evenodd"></path>
<path fill="#FF9900" d="M19.3516 12.204C19.3516 16.2541 21.9038 18.8906 26.2399 18.8906C28.161 18.8906 29.7526 18.5371 30.9051 18.048L30.4113 15.7647C29.3682 16.1184 28.2705 16.3628 26.7063 16.3628C24.5384 16.3628 22.6722 15.3299 22.59 12.9379H31.5363C31.5911 12.6392 31.6462 12.1501 31.6462 11.5246C31.6462 8.61628 30.219 5.08294 25.8828 5.08294C21.602 5.08294 19.3516 8.53497 19.3516 12.204ZM25.691 7.36603C27.9412 7.36603 28.4899 9.37738 28.4626 10.6005H22.59C22.727 9.24151 23.6053 7.36603 25.691 7.36603Z" clip-rule="evenodd" fill-rule="evenodd"></path>
</svg>
