<svg xmlns="http://www.w3.org/2000/svg" fill="none" viewBox="0 0 51 17" height="17" width="51">
<path fill="#FF9900" d="M17.0988 10.4041C17.0988 13.8387 19.223 16.0746 22.8319 16.0746C24.4309 16.0746 25.7555 15.7748 26.7148 15.36L26.3037 13.4237C25.4356 13.7237 24.522 13.9309 23.2201 13.9309C21.4158 13.9309 19.8625 13.055 19.7941 11.0265H27.2401C27.2857 10.7732 27.3315 10.3584 27.3315 9.82803C27.3315 7.3617 26.1437 4.36536 22.5347 4.36536C18.9718 4.36536 17.0988 7.29276 17.0988 10.4041ZM22.375 6.30147C24.2479 6.30147 24.7046 8.00714 24.6819 9.04433H19.7941C19.9081 7.89191 20.6391 6.30147 22.375 6.30147Z" clip-rule="evenodd" fill-rule="evenodd"></path>
<path fill="#006633" d="M41.0378 4.52669C41.0378 6.76238 42.6597 8.12238 45.2177 9.04435C47.1593 9.75873 47.936 10.4504 47.936 11.6259C47.936 12.8937 46.9309 13.7464 45.149 13.7464C43.7101 13.7464 42.3168 13.2855 41.426 12.7554L40.7867 15.1064C41.6319 15.6366 43.3219 16.0976 44.9663 16.0976C48.918 16.0976 50.791 13.9309 50.791 11.4187C50.791 9.18261 49.5118 7.82261 46.8394 6.80866C44.7837 6.00172 43.8929 5.44866 43.8929 4.24997C43.8929 3.328 44.6468 2.38299 46.4283 2.38299C47.8672 2.38299 48.9409 2.82102 49.5118 3.1206L50.1742 0.838632C49.3749 0.423831 48.1642 0.0549316 46.4967 0.0549316C43.1391 0.0549316 41.0378 1.968 41.0378 4.52669ZM0.992493 8.21474C0.992493 10.5657 1.76914 12.6172 3.13964 13.9309C4.60144 15.337 6.58852 16.0055 9.19237 16.0055C11.2251 16.0055 13.1438 15.4983 14.1262 15.1294V7.26955H8.69001V9.50524H11.4081V13.4009C11.0425 13.5622 10.3115 13.7005 9.28367 13.7005C6.08616 13.7005 3.93901 11.6028 3.93901 8.07629C3.93901 4.45737 6.24585 2.49821 9.53504 2.49821C11.1567 2.49821 12.1845 2.77474 13.0296 3.16688L13.6463 0.884721C12.9385 0.539053 11.4535 0.14711 9.55777 0.14711C4.46448 0.14711 1.01541 3.28191 0.992493 8.21474ZM27.4437 0.308608V2.68275H31.8291V15.8442H34.6387V2.68275H39.0698V0.308608H27.4437Z" clip-rule="evenodd" fill-rule="evenodd"></path>
</svg>
