<svg version="1.1" viewBox="0 0 60 92" height="92" width="60" xmlns:xlink="http://www.w3.org/1999/xlink" xmlns="http://www.w3.org/2000/svg">
    
    <title>5C944507-EC05-4C50-AF9A-02B20DC2947A</title>
    <desc>Created with sketchtool.</desc>
    <defs>
        <rect height="92" width="60" y="0" x="0" id="path-1"></rect>
    </defs>
    <g fill-rule="evenodd" fill="none" stroke-width="1" stroke="none" id="Design-Documentation">
        <g transform="translate(-378.000000, -2297.000000)" id="5.0-–-Atoms-–-Downloads">
            <g transform="translate(378.000000, 2297.000000)" id="GeTS-Logo---Full">
                <g id="GeTS-Logo">
                    <mask fill="white" id="mask-2">
                        
                    </mask>
                    <g id="Mask"></g>
                    <g mask="url(#mask-2)">
                        <g transform="translate(0.000000, 12.000000)">
                            <rect height="80" width="60" y="0" x="0" id="Background"></rect>
                            <g fill-rule="evenodd" stroke-width="1" id="GeTS-Logo">
                                <path fill="#006633" id="Shape" d="M30.0350311,26.0726932 C30.0214286,26.0726932 30.004472,26.0726932 29.9908696,26.0726932 C9.43006211,26.0962998 0.00708074534,42.2100234 0.00708074534,42.2100234 L0.00708074534,79.9844496 L59.8432919,79.9844496 L59.8432919,42.2100234 C59.8432919,42.2100234 50.3237888,26.0730679 30.0381988,26.0726932 C30.0370807,26.0726932 30.0363354,26.0726932 30.0350311,26.0726932 Z"></path>
                                <path fill="#006633" id="Shape" d="M45.0378261,4.52665105 C45.0378261,6.76234192 46.6596894,8.12234192 49.2177019,9.04430913 C51.1593168,9.75868852 51.9359627,10.4503981 51.9359627,11.6258548 C51.9359627,12.8936768 50.9308696,13.7463232 49.1489441,13.7463232 C47.7100621,13.7463232 46.3168323,13.2854333 45.4259627,12.7554098 L44.786646,15.1063232 C45.6318634,15.636534 47.3219255,16.0976112 48.9663354,16.0976112 C52.9179503,16.0976112 54.7909938,13.9308665 54.7909938,11.4186417 C54.7909938,9.18257611 53.5118012,7.82257611 50.8393789,6.80861827 C48.7837267,6.00168618 47.8928571,5.44861827 47.8928571,4.24992974 C47.8928571,3.32796253 48.6467702,2.38295082 50.428323,2.38295082 C51.867205,2.38295082 52.9408696,2.82098361 53.5118012,3.12056206 L54.1742236,0.838594848 C53.3748447,0.423793911 52.1642236,0.0548946136 50.4967081,0.0548946136 C47.1391304,0.0548946136 45.0378261,1.96796253 45.0378261,4.52665105 Z M4.99248447,8.21470726 C4.99248447,10.5656206 5.76913043,12.6171429 7.13962733,13.9308665 C8.60142857,15.3369555 10.5885093,16.0054333 13.1923602,16.0054333 C15.2250932,16.0054333 17.1437888,15.498267 18.1261491,15.1293677 L18.1261491,7.2695082 L12.69,7.2695082 L12.69,9.50519906 L15.4080745,9.50519906 L15.4080745,13.4008431 C15.0424845,13.5621546 14.3114907,13.7004215 13.2836646,13.7004215 C10.0861491,13.7004215 7.93900621,11.6028103 7.93900621,8.07625293 C7.93900621,4.45733021 10.2458385,2.4981733 13.5350311,2.4981733 C15.1567081,2.4981733 16.1845342,2.77470726 17.0295652,3.16683841 L17.6463354,0.884683841 C16.9384472,0.539016393 15.4535404,0.1470726 13.557764,0.1470726 C8.46447205,0.1470726 5.01540373,3.28187354 4.99248447,8.21470726 Z M31.4437267,0.308571429 L31.4437267,2.68271663 L35.8291304,2.68271663 L35.8291304,15.8441218 L38.6386957,15.8441218 L38.6386957,2.68271663 L43.0697516,2.68271663 L43.0697516,0.308571429 L31.4437267,0.308571429 Z"></path>
                                <path fill="#FF9900" id="Shape" d="M21.0987578,10.4041218 C21.0987578,13.8386885 23.2229814,16.0745667 26.8319255,16.0745667 C28.4308696,16.0745667 29.755528,15.7748009 30.7147826,15.36 L30.3037267,13.4237002 C29.4355901,13.7236534 28.5219876,13.9308665 27.2200621,13.9308665 C25.4157764,13.9308665 23.8624845,13.0549883 23.7940994,11.0265105 L31.2400621,11.0265105 C31.2857143,10.7732084 31.3315528,10.3584075 31.3315528,9.82800937 C31.3315528,7.36168618 30.1436646,4.36533958 26.5347205,4.36533958 C22.9718012,4.36533958 21.0987578,7.29274005 21.0987578,10.4041218 Z M26.3750311,6.30145199 C28.2478882,6.30145199 28.7045963,8.00711944 28.6818634,9.04430913 L23.7940994,9.04430913 C23.9081366,7.89189696 24.6391304,6.30145199 26.3750311,6.30145199 Z"></path>
                                <path fill="#FF9900" id="Shape" d="M22.4373913,26.8468384 C25.3431056,30.9358314 27.8126087,34.8427166 29.9068323,38.5629977 C29.5712422,38.5199063 29.2345342,38.4792506 28.8963354,38.4408431 C22.5285093,37.7185948 15.6676398,37.830445 8.40521739,38.7694614 C8.6221118,36.877377 8.7752795,34.9303981 8.86434783,32.9296487 C8.34018634,33.3135363 7.84006211,33.701171 7.36378882,34.088993 C7.25906832,35.7944731 7.10757764,37.4222014 6.91639752,38.9729274 C5.18981366,39.2207963 3.44031056,39.5153162 1.6710559,39.855363 C1.11409938,40.5629977 0.698571429,41.150726 0.42242236,41.5615925 C2.58987578,41.1158782 4.68763975,40.7473536 6.71888199,40.4490867 C5.37689441,49.7693677 2.58596273,56.1940984 0.00708074534,60.3840749 L0.00708074534,63.1612178 C0.169192547,62.9296487 0.332049689,62.6911475 0.494347826,62.4474005 C3.4768323,63.1930679 6.63167702,63.5672131 9.94695652,63.5672131 C11.3155901,63.5672131 12.7123602,63.5033255 14.1348447,63.375363 C16.1178261,63.1971897 18.1524224,62.8948009 20.2343478,62.4700703 C18.1762733,64.9155972 16.1390683,66.9807963 14.2393789,68.7042623 C11.2252174,71.4388759 8.32006211,73.5436066 5.81645963,75.1244965 C3.78689441,73.525808 1.83055901,71.7390164 0.00708074534,69.7457611 L0.00708074534,71.8428103 C1.40180124,73.2775644 2.90049689,74.6414988 4.49981366,75.9308665 C2.68751553,77.0068384 1.14503106,77.7830445 0.00708074534,78.30726 L0.00708074534,79.8836534 C1.30919255,79.3150351 3.29888199,78.3529742 5.71602484,76.882623 C6.60335404,77.5561593 7.51956522,78.2081499 8.46447205,78.8378454 C9.05012422,79.2284778 9.64732919,79.6108665 10.2551553,79.9844496 L13.1211801,79.9844496 C11.0675776,78.8324122 9.02217391,77.5293677 7.03490683,76.055644 C9.46695652,74.4850585 12.2429814,72.4374707 15.1403106,69.8148946 C17.79,67.4165808 20.2546584,64.791007 22.5177019,61.9595316 C26.9890062,60.8740047 31.6628571,59.2430913 36.4915528,57.079719 C36.9318634,56.8824356 37.3697516,56.6823419 37.802795,56.4805621 C40.5029814,65.128993 40.9969565,72.1703044 40.6425466,77.4637939 C40.6047205,78.0273536 40.5573913,78.5768618 40.501118,79.1140047 C40.1359006,79.4120843 39.7727329,79.7022951 39.4119876,79.9844496 L41.8390062,79.9844496 C41.8431056,79.9511007 41.847205,79.9183138 41.8509317,79.8847775 C42.9885093,78.9416393 44.1132298,77.9469789 45.2234161,76.9019204 C50.4270186,72.0033724 55.3270807,65.9754567 59.8432919,58.9236534 L59.8432919,56.2370023 C53.8690062,65.9503513 47.7395031,72.8764403 42.0475155,77.8120843 C42.0506832,77.7678689 42.0538509,77.7242155 42.0570186,77.6798126 C42.5314286,70.8573302 41.547205,63.51363 39.1315528,55.8501171 C44.4238509,53.2918033 49.1109317,50.4725059 52.7250932,48.0970492 C55.9108696,50.193911 58.2490062,52.3170023 59.8432919,53.9955035 L59.8432919,51.9409836 C58.3691925,50.5079157 56.4463975,48.8732553 54.0190062,47.2355972 C56.9042236,45.2888056 58.945528,43.7390164 59.8432919,43.0392506 L59.8432919,42.2100234 C59.8432919,42.2100234 59.702795,41.971897 59.4201242,41.553911 C59.0951553,41.8152693 56.6293789,43.7783607 52.7187578,46.3896956 C51.6415528,45.7140984 50.4762112,45.0435597 49.2190062,44.3925059 C44.8317391,42.1210304 39.986646,40.4387822 34.7582609,39.3674941 C36.1157143,35.4165808 37.2145342,31.2738173 38.0468944,26.9598126 C37.588882,26.8552693 37.1230435,26.7585948 36.6501242,26.6709133 C35.7821739,31.1737705 34.6518634,35.3054801 33.3346584,39.092459 C32.7903727,38.9937237 32.2421739,38.9015457 31.6898758,38.8157377 C29.4640994,34.7829508 26.8915528,30.6915222 23.9815528,26.5583138 C23.4581366,26.6443091 22.9429193,26.7407963 22.4373913,26.8468384 Z M1.31571429,61.1587822 C3.55118012,57.4952693 5.32378882,53.2440281 6.59086957,48.5051054 C7.28813665,45.8975176 7.83223602,43.1376112 8.22204969,40.2396253 C17.0057143,39.0804684 24.4909938,39.2468384 30.7863354,40.1553162 C31.2232919,40.9616862 31.6429193,41.7592506 32.0450311,42.5474473 C29.0770807,49.978267 25.4040373,55.9434192 21.7056522,60.6591101 C17.8762733,61.5501639 13.8920497,62.1032319 9.90298137,62.1034192 C7.02465839,62.1034192 4.14391304,61.8154567 1.31571429,61.1587822 Z M32.5678882,40.437096 C32.6578882,40.4526464 32.7471429,40.4681967 32.8365839,40.4839344 C32.8032298,40.5746136 32.7696894,40.6651054 32.7361491,40.7552225 C32.6806211,40.649555 32.6239752,40.5427635 32.5678882,40.437096 Z M33.6221739,42.47363 C33.8431677,41.904637 34.0585714,41.3315222 34.2683851,40.7537237 C40.1610559,41.9342389 44.8617391,43.7551288 48.4770186,45.6177986 C49.5143478,46.1521311 50.4885093,46.7022014 51.4008075,47.2580796 C47.9519255,49.4995785 43.585528,52.0992974 38.6849068,54.4786885 C37.3677019,50.5564403 35.6772671,46.5493208 33.6221739,42.47363 Z M28.381677,53.3925995 C30.0665217,50.5015457 31.5749068,47.4548009 32.9018012,44.2654801 C34.774472,48.1109133 36.2347826,51.7272131 37.3608075,55.1098829 C36.8819255,55.3339578 36.3974534,55.5559719 35.91,55.7742389 C32.3137267,57.3854801 28.255528,58.931897 23.9584472,60.0925527 C25.5439752,57.9638407 27.0208696,55.7275878 28.381677,53.3925995 Z"></path>
                                <path fill="#FF9900" id="Shape" d="M28.3151553,40.344356 C28.3151553,42.7998126 30.295528,44.7902576 32.7385714,44.7902576 C35.1814286,44.7902576 37.1618012,42.7998126 37.1618012,40.344356 C37.1618012,37.8888993 35.1814286,35.8984543 32.7385714,35.8984543 C30.295528,35.8984543 28.3151553,37.8888993 28.3151553,40.344356 Z M48.3642857,46.931897 C48.3642857,49.3867916 50.343354,51.3764871 52.7849068,51.3764871 C55.226646,51.3764871 57.205528,49.3867916 57.205528,46.931897 C57.205528,44.4775644 55.226646,42.4874941 52.7849068,42.4874941 C50.343354,42.4874941 48.3642857,44.4775644 48.3642857,46.931897 Z M0.00708074534,64.8322248 C2.31819876,64.6872131 4.14838509,62.7555972 4.14838509,60.394192 C4.14838509,58.0324122 2.31819876,56.1007963 0.00708074534,55.9557845 L0.00708074534,64.8322248 Z M18.7270807,60.6313817 C18.7270807,63.0868384 20.7068944,65.077096 23.1490062,65.077096 C25.5913043,65.077096 27.571118,63.0868384 27.571118,60.6313817 C27.571118,58.1761124 25.5913043,56.1856674 23.1490062,56.1856674 C20.7068944,56.1856674 18.7270807,58.1761124 18.7270807,60.6313817 Z M1.75621118,75.9156909 C1.75621118,77.732459 2.84049689,79.2946136 4.39416149,79.9844496 L7.96490683,79.9844496 C9.51857143,79.2946136 10.6028571,77.732459 10.6028571,75.9156909 C10.6028571,73.4604215 8.62248447,71.4699766 6.17944099,71.4699766 C3.73658385,71.4699766 1.75621118,73.4604215 1.75621118,75.9156909 Z M37.3703106,78.9000468 C37.3703106,79.2740047 37.4163354,79.6374707 37.502795,79.9844496 L46.0792547,79.9844496 C46.1657143,79.6374707 46.2117391,79.2740047 46.2117391,78.9000468 C46.2117391,76.4445902 44.2324845,74.4541452 41.7909317,74.4541452 C39.3495652,74.4541452 37.3703106,76.4445902 37.3703106,78.9000468 Z"></path>
                            </g>
                        </g>
                    </g>
                </g>
            </g>
        </g>
    </g>
</svg>