<svg xmlns="http://www.w3.org/2000/svg" fill="none" viewBox="0 0 60 80" height="80" width="60">
<path fill="#006633" d="M30.035 26.0727C30.0214 26.0727 30.0045 26.0727 29.9909 26.0727C9.43006 26.0963 0.00708008 42.21 0.00708008 42.21V79.9845H59.8433V42.21C59.8433 42.21 50.3238 26.0731 30.0382 26.0727C30.0371 26.0727 30.0363 26.0727 30.035 26.0727Z" clip-rule="evenodd" fill-rule="evenodd"></path>
<path fill="#006633" d="M45.0378 4.52666C45.0378 6.76235 46.6596 8.12235 49.2176 9.04432C51.1593 9.75869 51.9359 10.4504 51.9359 11.6259C51.9359 12.8937 50.9308 13.7463 49.1489 13.7463C47.71 13.7463 46.3168 13.2854 45.4259 12.7554L44.7866 15.1063C45.6318 15.6365 47.3219 16.0976 48.9663 16.0976C52.9179 16.0976 54.7909 13.9309 54.7909 11.4186C54.7909 9.18258 53.5117 7.82258 50.8393 6.80862C48.7837 6.00169 47.8928 5.44863 47.8928 4.24994C47.8928 3.32797 48.6467 2.38296 50.4283 2.38296C51.8672 2.38296 52.9408 2.82099 53.5117 3.12057L54.1742 0.838601C53.3748 0.4238 52.1642 0.0549011 50.4967 0.0549011C47.1391 0.0549011 45.0378 1.96797 45.0378 4.52666ZM4.99243 8.21471C4.99243 10.5656 5.76908 12.6171 7.13957 13.9309C8.60138 15.337 10.5885 16.0054 13.1923 16.0054C15.225 16.0054 17.1437 15.4983 18.1261 15.1294V7.26952H12.6899V9.50521H15.408V13.4008C15.0424 13.5622 14.3114 13.7004 13.2836 13.7004C10.0861 13.7004 7.93895 11.6028 7.93895 8.07626C7.93895 4.45734 10.2458 2.49818 13.535 2.49818C15.1567 2.49818 16.1845 2.77471 17.0295 3.16684L17.6463 0.88469C16.9384 0.539023 15.4535 0.147079 13.5577 0.147079C8.46442 0.147079 5.01535 3.28188 4.99243 8.21471ZM31.4437 0.308578V2.68272H35.8291V15.8441H38.6386V2.68272H43.0697V0.308578H31.4437Z" clip-rule="evenodd" fill-rule="evenodd"></path>
<path fill="#FF9900" d="M21.0988 10.4041C21.0988 13.8387 23.223 16.0746 26.8319 16.0746C28.4309 16.0746 29.7555 15.7748 30.7148 15.36L30.3037 13.4237C29.4356 13.7237 28.522 13.9309 27.2201 13.9309C25.4158 13.9309 23.8625 13.055 23.7941 11.0265H31.2401C31.2857 10.7732 31.3315 10.3584 31.3315 9.82801C31.3315 7.36169 30.1437 4.36534 26.5347 4.36534C22.9718 4.36534 21.0988 7.29274 21.0988 10.4041ZM26.375 6.30145C28.2479 6.30145 28.7046 8.00712 28.6819 9.04431H23.7941C23.9081 7.8919 24.6391 6.30145 26.375 6.30145Z" clip-rule="evenodd" fill-rule="evenodd"></path>
<path fill="#FF9900" d="M22.4374 26.8468C25.3431 30.9358 27.8126 34.8427 29.9068 38.563C29.5712 38.5199 29.2345 38.4793 28.8963 38.4408C22.5285 37.7186 15.6676 37.8305 8.40522 38.7695C8.62211 36.8774 8.77528 34.9304 8.86435 32.9297C8.34018 33.3135 7.84006 33.7012 7.36379 34.089C7.25907 35.7945 7.10758 37.4222 6.9164 38.9729C5.18981 39.2208 3.44031 39.5153 1.67106 39.8554C1.1141 40.563 0.698571 41.1507 0.422422 41.5616C2.58988 41.1159 4.68764 40.7474 6.71888 40.4491C5.37689 49.7694 2.58596 56.1941 0.00708008 60.3841V63.1612C0.169192 62.9297 0.332049 62.6911 0.494347 62.4474C3.47683 63.1931 6.63168 63.5672 9.94696 63.5672C11.3156 63.5672 12.7124 63.5033 14.1348 63.3754C16.1178 63.1972 18.1524 62.8948 20.2343 62.4701C18.1763 64.9156 16.1391 66.9808 14.2394 68.7043C11.2252 71.4389 8.32006 73.5436 5.81646 75.1245C3.78689 73.5258 1.83056 71.739 0.00708008 69.7458V71.8428C1.4018 73.2776 2.9005 74.6415 4.49981 75.9309C2.68751 77.0068 1.14503 77.7831 0.00708008 78.3073V79.8837C1.30919 79.315 3.29888 78.353 5.71602 76.8826C6.60335 77.5562 7.51956 78.2082 8.46447 78.8379C9.05012 79.2285 9.64733 79.6109 10.2552 79.9845H13.1212C11.0676 78.8324 9.02217 77.5294 7.03491 76.0556C9.46696 74.4851 12.243 72.4375 15.1403 69.8149C17.79 67.4166 20.2547 64.791 22.5177 61.9595C26.989 60.874 31.6629 59.2431 36.4916 57.0797C36.9319 56.8824 37.3698 56.6823 37.8028 56.4806C40.503 65.129 40.997 72.1703 40.6425 77.4638C40.6047 78.0274 40.5574 78.5769 40.5011 79.114C40.1359 79.4121 39.7727 79.7023 39.412 79.9845H41.839C41.8431 79.9511 41.8472 79.9183 41.8509 79.8848C42.9885 78.9417 44.1132 77.947 45.2234 76.9019C50.427 72.0034 55.3271 65.9755 59.8433 58.9237V56.237C53.869 65.9504 47.7395 72.8765 42.0475 77.8121C42.0507 77.7679 42.0539 77.7242 42.057 77.6798C42.5314 70.8573 41.5472 63.5136 39.1316 55.8501C44.4239 53.2918 49.1109 50.4725 52.7251 48.0971C55.9109 50.1939 58.249 52.317 59.8433 53.9955V51.941C58.3692 50.5079 56.4464 48.8733 54.019 47.2356C56.9042 45.2888 58.9455 43.739 59.8433 43.0393V42.21C59.8433 42.21 59.7028 41.9719 59.4201 41.5539C59.0952 41.8153 56.6294 43.7784 52.7188 46.3897C51.6416 45.7141 50.4762 45.0436 49.219 44.3925C44.8317 42.121 39.9866 40.4388 34.7583 39.3675C36.1157 35.4166 37.2145 31.2738 38.0469 26.9598C37.5889 26.8553 37.123 26.7586 36.6501 26.6709C35.7822 31.1738 34.6519 35.3055 33.3347 39.0925C32.7904 38.9937 32.2422 38.9016 31.6899 38.8157C29.4641 34.783 26.8916 30.6915 23.9816 26.5583C23.4581 26.6443 22.9429 26.7408 22.4374 26.8468ZM1.31571 61.1588C3.55118 57.4953 5.32379 53.244 6.59087 48.5051C7.28814 45.8975 7.83224 43.1376 8.22205 40.2396C17.0057 39.0805 24.491 39.2468 30.7863 40.1553C31.2233 40.9617 31.6429 41.7593 32.045 42.5475C29.0771 49.9783 25.404 55.9434 21.7057 60.6591C17.8763 61.5502 13.892 62.1032 9.90298 62.1034C7.02466 62.1034 4.14391 61.8155 1.31571 61.1588ZM32.5679 40.4371C32.6579 40.4527 32.7471 40.4682 32.8366 40.4839C32.8032 40.5746 32.7697 40.6651 32.7361 40.7552C32.6806 40.6496 32.624 40.5428 32.5679 40.4371ZM33.6222 42.4736C33.8432 41.9046 34.0586 41.3315 34.2684 40.7537C40.1611 41.9342 44.8617 43.7551 48.477 45.6178C49.5143 46.1521 50.4885 46.7022 51.4008 47.2581C47.9519 49.4996 43.5855 52.0993 38.6849 54.4787C37.3677 50.5564 35.6773 46.5493 33.6222 42.4736ZM28.3817 53.3926C30.0665 50.5016 31.5749 47.4548 32.9018 44.2655C34.7745 48.1109 36.2348 51.7272 37.3608 55.1099C36.8819 55.334 36.3975 55.556 35.91 55.7742C32.3137 57.3855 28.2555 58.9319 23.9584 60.0926C25.544 57.9638 27.0209 55.7276 28.3817 53.3926Z" clip-rule="evenodd" fill-rule="evenodd"></path>
<path fill="#FF9900" d="M28.3152 40.3444C28.3152 42.7998 30.2955 44.7903 32.7386 44.7903C35.1814 44.7903 37.1618 42.7998 37.1618 40.3444C37.1618 37.8889 35.1814 35.8985 32.7386 35.8985C30.2955 35.8985 28.3152 37.8889 28.3152 40.3444ZM48.3643 46.9319C48.3643 49.3868 50.3434 51.3765 52.7849 51.3765C55.2266 51.3765 57.2055 49.3868 57.2055 46.9319C57.2055 44.4776 55.2266 42.4875 52.7849 42.4875C50.3434 42.4875 48.3643 44.4776 48.3643 46.9319ZM0.00708008 64.8322C2.3182 64.6872 4.14838 62.7556 4.14838 60.3942C4.14838 58.0324 2.3182 56.1008 0.00708008 55.9558V64.8322ZM18.7271 60.6314C18.7271 63.0869 20.7069 65.0771 23.149 65.0771C25.5913 65.0771 27.5711 63.0869 27.5711 60.6314C27.5711 58.1761 25.5913 56.1857 23.149 56.1857C20.7069 56.1857 18.7271 58.1761 18.7271 60.6314ZM1.75621 75.9157C1.75621 77.7325 2.8405 79.2946 4.39416 79.9845H7.96491C9.51857 79.2946 10.6029 77.7325 10.6029 75.9157C10.6029 73.4604 8.62248 71.47 6.17944 71.47C3.73658 71.47 1.75621 73.4604 1.75621 75.9157ZM37.3703 78.9001C37.3703 79.274 37.4163 79.6375 37.5028 79.9845H46.0793C46.1657 79.6375 46.2117 79.274 46.2117 78.9001C46.2117 76.4446 44.2325 74.4542 41.7909 74.4542C39.3496 74.4542 37.3703 76.4446 37.3703 78.9001Z" clip-rule="evenodd" fill-rule="evenodd"></path>
</svg>
