<svg version="1.1" viewBox="0 0 60 44" height="44" width="60" xmlns:xlink="http://www.w3.org/1999/xlink" xmlns="http://www.w3.org/2000/svg">
    
    <title>104C34DB-39CF-44BF-873E-7EBC15684AD5</title>
    <desc>Created with sketchtool.</desc>
    <defs>
        <rect height="44" width="60" y="0" x="0" id="path-1"></rect>
    </defs>
    <g fill-rule="evenodd" fill="none" stroke-width="1" stroke="none" id="Design-Documentation">
        <g transform="translate(-586.000000, -2321.000000)" id="5.0-–-Atoms-–-Downloads">
            <g transform="translate(586.000000, 2321.000000)" id="GeTS-Logo---Full-Copy">
                <g id="GeTS-Logo---Text">
                    <mask fill="white" id="mask-2">
                        
                    </mask>
                    <g id="Mask"></g>
                    <g mask="url(#mask-2)">
                        <g transform="translate(0.000000, 13.000000)">
                            <rect height="19" width="60" y="0" x="0" id="Background"></rect>
                            <g fill-rule="evenodd" stroke-width="1" id="Group">
                                <path fill="#006633" id="Shape" d="M48.1141791,5.27316279 C48.1141791,7.90952326 50.0628358,9.51325581 53.1362687,10.6004535 C55.4691045,11.4428605 56.4022388,12.2585349 56.4022388,13.6446512 C56.4022388,15.139686 55.1946269,16.1451395 53.0536567,16.1451395 C51.3248507,16.1451395 49.6508955,15.6016512 48.5805224,14.9766395 L47.8123881,17.7488721 C48.8279104,18.3741047 50.8585075,18.917814 52.8342537,18.917814 C57.5820896,18.917814 59.8325373,16.3627558 59.8325373,13.4003023 C59.8325373,10.7635 58.295597,9.15976744 55.0847015,7.96409302 C52.6148507,7.01254651 51.5444776,6.36036047 51.5444776,4.94684884 C51.5444776,3.85965116 52.4502985,2.74527907 54.5908209,2.74527907 C56.3196269,2.74527907 57.6096269,3.26181395 58.295597,3.6150814 L59.0914925,0.924151163 C58.1310448,0.435011628 56.6764925,0 54.6729851,0 C50.6388806,0 48.1141791,2.2559186 48.1141791,5.27316279 Z M0,9.62217442 C0,12.394407 0.933134328,14.813593 2.57977612,16.3627558 C4.3361194,18.0208372 6.72358209,18.8091163 9.85208955,18.8091163 C12.294403,18.8091163 14.5997015,18.2110581 15.78,17.7760465 L15.78,8.5075814 L9.24850746,8.5075814 L9.24850746,11.1439419 L12.5142537,11.1439419 L12.5142537,15.7377442 C12.075,15.9279651 11.1967164,16.0910116 9.96179104,16.0910116 C6.12,16.0910116 3.54022388,13.6174767 3.54022388,9.45890698 C3.54022388,5.1914186 6.31186567,2.88115116 10.263806,2.88115116 C12.2122388,2.88115116 13.4471642,3.20724419 14.4624627,3.66965116 L15.2035075,0.9785 C14.3529851,0.570883721 12.5688806,0.108697674 10.2911194,0.108697674 C4.17156716,0.108697674 0.0275373134,3.80530233 0,9.62217442 Z M31.7809701,0.299139535 L31.7809701,3.09876744 L37.05,3.09876744 L37.05,18.6188953 L40.4256716,18.6188953 L40.4256716,3.09876744 L45.7495522,3.09876744 L45.7495522,0.299139535 L31.7809701,0.299139535 Z"></path>
                                <path fill="#FF9900" id="Shape" d="M19.3515672,12.2039651 C19.3515672,16.2540581 21.903806,18.8906395 26.2399254,18.8906395 C28.1610448,18.8906395 29.7526119,18.5371512 30.9051493,18.0480116 L30.4112687,15.7646977 C29.368209,16.118407 28.2705224,16.3627558 26.7062687,16.3627558 C24.5384328,16.3627558 22.6721642,15.329907 22.59,12.9378953 L31.5362687,12.9378953 C31.5911194,12.6391977 31.646194,12.1500581 31.646194,11.5246047 C31.646194,8.61627907 30.2189552,5.08294186 25.8828358,5.08294186 C21.6020149,5.08294186 19.3515672,8.53497674 19.3515672,12.2039651 Z M25.6909701,7.36603488 C27.941194,7.36603488 28.4899254,9.37738372 28.4626119,10.6004535 L22.59,10.6004535 C22.7270149,9.24151163 23.6052985,7.36603488 25.6909701,7.36603488 Z"></path>
                            </g>
                        </g>
                    </g>
                </g>
            </g>
        </g>
    </g>
</svg>