<svg xmlns:xlink="http://www.w3.org/1999/xlink" xmlns="http://www.w3.org/2000/svg" version="1.1" viewBox="0 0 249 113" height="113" width="249">
    <defs>
        <polygon points="0.703775439 0.417557895 31.7844211 0.417557895 31.7844211 31.6058736 0.703775439 31.6058736" id="path-1"></polygon>
    <polygon points="0.703775439 0.417557895 31.7844211 0.417557895 31.7844211 31.6058736 0.703775439 31.6058736" id="path-1"></polygon></defs>
    <g fill-rule="evenodd" fill="none" stroke-width="1" stroke="none" id="Page-1">
        <g fill="none" transform="translate(-130.000000, -189.000000)" id="Artboard">
            <g fill="none" transform="translate(130.000000, 189.000000)" id="Group">
                <g fill="none" transform="translate(126.000000, 11.000000)" id="Group-2">
                    <path fill-rule="nonzero" fill="#F8F7F7" id="Fill-1" d="M15.0270971,15.6215354 C11.12725,15.6215354 7.43767571,18.5351342 7.43767571,24.0055219 C7.43767571,29.4737982 11.1294171,32.5985274 15.0270971,32.5985274 C19.031,32.5985274 22.6707129,29.5793634 22.6707129,24.1110871 C22.6707129,18.6406994 19.031,15.6215354 15.0270971,15.6215354 M13.2061571,9.21584026 C17.00195,9.21584026 20.6438329,10.9851127 22.6186871,13.6960264 L22.6186871,0 L30,0 L30,38.5334018 L22.6186871,38.5334018 L22.6186871,34.2622348 C20.9018,36.9182547 17.6783,39 13.1562971,39 C5.82267429,39 0,33.012343 0,24.0034106 C0,14.9944781 5.82267429,9.21584026 13.2061571,9.21584026"></path>
                    <path fill-rule="nonzero" fill="#F8F7F7" id="Fill-3" d="M48.8292693,10 C55.7933452,10 60.4872596,13.7768484 62,20.2800029 L54.3794902,20.2800029 C53.5715734,17.815269 51.7032658,16.2415823 48.7766704,16.2415823 C44.8401784,16.2415823 42.2165501,19.3357907 42.2165501,25.0010633 C42.2165501,30.6642093 44.8401784,33.7073793 48.7766704,33.7073793 C51.7032658,33.7073793 53.5189746,32.3442263 54.3794902,29.7199971 L62,29.7199971 C60.4872596,35.9105409 55.7933452,40 48.8292693,40 C40.7564099,40 35,34.1263203 35,25.0010633 C35,15.8736797 40.7564099,10 48.8292693,10"></path>
                    <path fill-rule="nonzero" fill="#F8F7F7" id="Fill-5" d="M78.1003273,40 C71.1486319,40 66.3001629,35.7531721 66,30.349472 L73.0496653,30.349472 C73.2998004,32.5526334 75.2487773,34.2326504 78.0502994,34.2326504 C80.7997094,34.2326504 82.3026099,32.9205359 82.3026099,31.2405189 C82.3026099,26.049479 66.6503537,29.3542213 66.6503537,18.706316 C66.6503537,13.8831786 70.7525834,10 77.6021387,10 C84.3016132,10 88.3517306,13.8278869 88.7519493,19.5994896 L82.0524734,19.5994896 C81.8523647,17.343163 80.1514414,15.8226413 77.4020301,15.8226413 C74.8027009,15.8226413 73.4519669,16.924222 73.4519669,18.6021124 C73.4519669,23.9016091 88.8019757,20.5968669 89,31.244772 C89,36.2231516 84.8519126,40 78.1003273,40"></path>
                    <g fill="none" transform="translate(91.000000, 8.000000)" id="Fill-7-Clipped">
                        <mask fill="#FFFFFF" id="mask-2">
                            
                        </mask>
                        <g fill="none" id="path-1"></g>
                        <path mask="url(#mask-2)" fill-rule="nonzero" fill="#F8F7F7" id="Fill-7" d="M16.2703719,7.12429473 C12.2305123,7.12429473 8.40847719,10.174821 8.40847719,15.9022947 C8.40847719,21.627558 12.2327579,24.8991369 16.2703719,24.8991369 C20.4180211,24.8991369 24.188407,21.7380842 24.188407,16.0128211 C24.188407,10.2853474 20.4202666,7.12429473 16.2703719,7.12429473 M14.332407,0.417557895 C19.1245473,0.417557895 22.4121264,2.70987369 24.188407,5.2144 L24.188407,0.910505264 L31.7853193,0.910505264 L31.7853193,31.1129264 L24.188407,31.1129264 L24.188407,26.6985053 C22.4121264,29.313558 19.016758,31.6058736 14.2785123,31.6058736 C6.73549473,31.6058736 0.703775439,25.3346105 0.703775439,15.9022947 C0.703775439,6.47218947 6.73549473,0.417557895 14.332407,0.417557895"></path>
                    </g>
                </g>
                <polygon points="10 32.4005848 6.40163695 36 5 34.5994152 8.59982463 31" fill-rule="nonzero" fill="#F8F7F7" id="Fill-10"></polygon>
                <polygon points="55 47.6023521 40.6023521 62 35 56.399118 49.3976479 42" fill-rule="nonzero" fill="#F3E300" id="Fill-12"></polygon>
                <polygon points="78 84.4819007 66.4823167 96 62 91.5180993 73.519168 80" fill-rule="nonzero" fill="#F3E305" id="Fill-14"></polygon>
                <polygon points="114 45.6408759 104.640876 55 101 51.3591241 110.357665 42" fill-rule="nonzero" fill="#009093" id="Fill-16"></polygon>
                <polygon points="99 37.8006183 91.8017307 45 89 42.1993817 96.1998147 35" fill-rule="nonzero" fill="#F8F7F7" id="Fill-18"></polygon>
                <polygon points="97 22.8006183 89.800618 30 87 27.1993817 94.199382 20" fill-rule="nonzero" fill="#DE5141" id="Fill-20"></polygon>
                <polygon points="90 9.80061827 82.8017307 17 80 14.1993817 87.1998147 7" fill-rule="nonzero" fill="#F8F7F7" id="Fill-22"></polygon>
                <polygon points="109 30.4005848 105.400176 34 104 32.5994152 107.599824 29" fill-rule="nonzero" fill="#F8F7F7" id="Fill-24"></polygon>
                <polygon points="41 76.4823167 29.4823169 88 25 83.519168 36.5191683 72" fill-rule="nonzero" fill="#DE5141" id="Fill-26"></polygon>
                <polygon points="79 42.6408759 69.6408762 52 66 48.3591241 75.3591238 39" fill-rule="nonzero" fill="#F8F7F7" id="Fill-28"></polygon>
                <polygon points="111 79.800618 103.800618 87 101 84.199382 108.199382 77" fill-rule="nonzero" fill="#F3E300" id="Fill-30"></polygon>
                <polygon points="85 90.4001756 81.4001756 94 80 92.5998244 83.5998244 89" fill-rule="nonzero" fill="#F8F7F7" id="Fill-32"></polygon>
                <polygon points="35 21.4819009 23.4808317 33 19 28.5180991 30.5176831 17" fill-rule="nonzero" fill="#F8F7F7" id="Fill-34"></polygon>
                <polygon points="99 97.800618 91.8017307 105 89 102.199382 96.1998147 95" fill-rule="nonzero" fill="#F8F7F7" id="Fill-36"></polygon>
                <polygon points="117 60.4001754 113.400176 64 112 62.5983631 115.599824 59" fill-rule="nonzero" fill="#F8F7F7" id="Fill-38"></polygon>
                <polygon points="89 57.4823169 77.480832 69 73 64.5191683 84.5176833 53" fill-rule="nonzero" fill="#DE5141" id="Fill-40"></polygon>
                <polygon points="34 42.6408759 24.6408759 52 21 48.3591241 30.3591241 39" fill-rule="nonzero" fill="#F8F7F7" id="Fill-42"></polygon>
                <polygon points="80 105.800618 72.800618 113 70 110.199382 77.199382 103" fill-rule="nonzero" fill="#009093" id="Fill-44"></polygon>
                <polygon points="23 12.4001754 19.4001754 16 18 14.5998246 21.5998246 11" fill-rule="nonzero" fill="#F8F7F7" id="Fill-46"></polygon>
                <polygon points="73 25.6408759 63.6408759 35 60 31.3591241 69.3591238 22" fill-rule="nonzero" fill="#F8F7F7" id="Fill-48"></polygon>
                <polygon points="61 59.8006183 53.8006183 67 51 64.1993817 58.1993817 57" fill-rule="nonzero" fill="#F8F7F7" id="Fill-50"></polygon>
                <polygon points="53 25.8006183 45.8006183 33 43 30.1993817 50.1993817 23" fill-rule="nonzero" fill="#F8F7F7" id="Fill-52"></polygon>
                <polygon points="35 97.800618 27.8006183 105 25 102.199382 32.1993817 95" fill-rule="nonzero" fill="#F8F7F7" id="Fill-54"></polygon>
                <polygon points="60 104.800618 52.8017308 112 50 109.199382 57.1998145 102" fill-rule="nonzero" fill="#F8F7F7" id="Fill-56"></polygon>
                <polygon points="16 86.4001756 12.4001754 90 11 88.5983631 14.5998246 85" fill-rule="nonzero" fill="#F8F7F7" id="Fill-58"></polygon>
                <polygon points="13 49.6408759 3.64087591 59 0 55.3591241 9.35912406 46" fill-rule="nonzero" fill="#009093" id="Fill-60"></polygon>
                <polygon points="63 76.800618 55.8006183 84 53 81.199382 60.1993817 74" fill-rule="nonzero" fill="#F8F7F7" id="Fill-62"></polygon>
                <polygon points="42 106.400585 38.4001754 110 37 108.599415 40.5998246 105" fill-rule="nonzero" fill="#F3E300" id="Fill-64"></polygon>
                <polygon points="70 5.64087591 60.6408759 15 57 11.3591241 66.3591238 2" fill-rule="nonzero" fill="#DE5141" id="Fill-66"></polygon>
                <polygon points="102 68.6408762 92.6408762 78 89 74.3591238 98.3591238 65" fill-rule="nonzero" fill="#F8F7F7" id="Fill-68"></polygon>
                <polygon points="14 67.800618 6.8017308 75 4 72.199382 11.1998145 65" fill-rule="nonzero" fill="#F8F7F7" id="Fill-70"></polygon>
                <polygon points="48 91.4001756 44.4001754 95 43 93.5998244 46.5998246 90" fill-rule="nonzero" fill="#F8F7F7" id="Fill-72"></polygon>
                <polygon points="27 67.4001756 23.4001754 71 22 69.5998244 25.5998246 66" fill-rule="nonzero" fill="#F8F7F7" id="Fill-74"></polygon>
                <polygon points="51 2.80061824 43.8017308 10 41 7.19938173 48.1998145 0" fill-rule="nonzero" fill="#F3E300" id="Fill-76"></polygon>
            </g>
        </g>
    </g>
</svg>