<svg xmlns="http://www.w3.org/2000/svg" fill="none" viewBox="0 0 249 113" height="113" width="249">
<path fill="#1E1E2C" d="M141.027 26.6215C137.127 26.6215 133.438 29.5351 133.438 35.0055C133.438 40.4738 137.129 43.5985 141.027 43.5985C145.031 43.5985 148.671 40.5794 148.671 35.1111C148.671 29.6407 145.031 26.6215 141.027 26.6215ZM139.206 20.2158C143.002 20.2158 146.644 21.9851 148.619 24.696V11H156V49.5334H148.619V45.2622C146.902 47.9183 143.678 50 139.156 50C131.823 50 126 44.0123 126 35.0034C126 25.9945 131.823 20.2158 139.206 20.2158Z"></path>
<path fill="#1E1E2C" d="M174.829 21C181.793 21 186.487 24.7768 188 31.28H180.379C179.572 28.8153 177.703 27.2416 174.777 27.2416C170.84 27.2416 168.217 30.3358 168.217 36.0011C168.217 41.6642 170.84 44.7074 174.777 44.7074C177.703 44.7074 179.519 43.3442 180.379 40.72H188C186.487 46.9105 181.793 51 174.829 51C166.756 51 161 45.1263 161 36.0011C161 26.8737 166.756 21 174.829 21Z"></path>
<path fill="#1E1E2C" d="M204.1 51C197.149 51 192.3 46.7532 192 41.3495H199.05C199.3 43.5526 201.249 45.2327 204.05 45.2327C206.8 45.2327 208.303 43.9205 208.303 42.2405C208.303 37.0495 192.65 40.3542 192.65 29.7063C192.65 24.8832 196.753 21 203.602 21C210.302 21 214.352 24.8279 214.752 30.5995H208.052C207.852 28.3432 206.151 26.8226 203.402 26.8226C200.803 26.8226 199.452 27.9242 199.452 29.6021C199.452 34.9016 214.802 31.5969 215 42.2448C215 47.2232 210.852 51 204.1 51Z"></path>
<mask height="32" width="32" y="19" x="217" maskUnits="userSpaceOnUse" style="mask-type:alpha" id="mask0_68_2">
<path fill="white" d="M217.704 19.4176H248.784V50.6059H217.704V19.4176Z"></path>
</mask>
<g mask="url(#mask0_68_2)">
<path fill="#1E1E2C" d="M233.27 26.1243C229.231 26.1243 225.408 29.1748 225.408 34.9023C225.408 40.6276 229.233 43.8991 233.27 43.8991C237.418 43.8991 241.188 40.7381 241.188 35.0128C241.188 29.2853 237.42 26.1243 233.27 26.1243ZM231.332 19.4176C236.125 19.4176 239.412 21.7099 241.188 24.2144V19.9105H248.785V50.1129H241.188V45.6985C239.412 48.3136 236.017 50.6059 231.279 50.6059C223.735 50.6059 217.704 44.3346 217.704 34.9023C217.704 25.4722 223.735 19.4176 231.332 19.4176Z"></path>
</g>
<path fill="#1E1E2C" d="M10 32.4006L6.40164 36L5 34.5994L8.59982 31L10 32.4006Z"></path>
<path fill="#F3E300" d="M55 47.6024L40.6024 62L35 56.3991L49.3976 42L55 47.6024Z"></path>
<path fill="#F3E305" d="M78 84.4819L66.4823 96L62 91.5181L73.5192 80L78 84.4819Z"></path>
<path fill="#009093" d="M114 45.6409L104.641 55L101 51.3591L110.358 42L114 45.6409Z"></path>
<path fill="#1E1E2C" d="M99 37.8006L91.8017 45L89 42.1994L96.1998 35L99 37.8006Z"></path>
<path fill="#DE5141" d="M97 22.8006L89.8006 30L87 27.1994L94.1994 20L97 22.8006Z"></path>
<path fill="#1E1E2C" d="M90 9.80062L82.8017 17L80 14.1994L87.1998 7L90 9.80062Z"></path>
<path fill="#1E1E2C" d="M109 30.4006L105.4 34L104 32.5994L107.6 29L109 30.4006Z"></path>
<path fill="#DE5141" d="M41 76.4823L29.4823 88L25 83.5192L36.5192 72L41 76.4823Z"></path>
<path fill="#1E1E2C" d="M79 42.6409L69.6409 52L66 48.3591L75.3591 39L79 42.6409Z"></path>
<path fill="#F3E300" d="M111 79.8006L103.801 87L101 84.1994L108.199 77L111 79.8006Z"></path>
<path fill="#1E1E2C" d="M85 90.4002L81.4002 94L80 92.5998L83.5998 89L85 90.4002Z"></path>
<path fill="#1E1E2C" d="M35 21.4819L23.4808 33L19 28.5181L30.5177 17L35 21.4819Z"></path>
<path fill="#1E1E2C" d="M99 97.8006L91.8017 105L89 102.199L96.1998 95L99 97.8006Z"></path>
<path fill="#1E1E2C" d="M117 60.4002L113.4 64L112 62.5984L115.6 59L117 60.4002Z"></path>
<path fill="#DE5141" d="M89 57.4823L77.4808 69L73 64.5192L84.5177 53L89 57.4823Z"></path>
<path fill="#1E1E2C" d="M34 42.6409L24.6409 52L21 48.3591L30.3591 39L34 42.6409Z"></path>
<path fill="#009093" d="M80 105.801L72.8006 113L70 110.199L77.1994 103L80 105.801Z"></path>
<path fill="#1E1E2C" d="M23 12.4002L19.4002 16L18 14.5998L21.5998 11L23 12.4002Z"></path>
<path fill="#1E1E2C" d="M73 25.6409L63.6409 35L60 31.3591L69.3591 22L73 25.6409Z"></path>
<path fill="#1E1E2C" d="M61 59.8006L53.8006 67L51 64.1994L58.1994 57L61 59.8006Z"></path>
<path fill="#1E1E2C" d="M53 25.8006L45.8006 33L43 30.1994L50.1994 23L53 25.8006Z"></path>
<path fill="#1E1E2C" d="M35 97.8006L27.8006 105L25 102.199L32.1994 95L35 97.8006Z"></path>
<path fill="#1E1E2C" d="M60 104.801L52.8017 112L50 109.199L57.1998 102L60 104.801Z"></path>
<path fill="#1E1E2C" d="M16 86.4002L12.4002 90L11 88.5984L14.5998 85L16 86.4002Z"></path>
<path fill="#009093" d="M13 49.6409L3.64088 59L0 55.3591L9.35912 46L13 49.6409Z"></path>
<path fill="#1E1E2C" d="M63 76.8006L55.8006 84L53 81.1994L60.1994 74L63 76.8006Z"></path>
<path fill="#F3E300" d="M42 106.401L38.4002 110L37 108.599L40.5998 105L42 106.401Z"></path>
<path fill="#DE5141" d="M70 5.64088L60.6409 15L57 11.3591L66.3591 2L70 5.64088Z"></path>
<path fill="#1E1E2C" d="M102 68.6409L92.6409 78L89 74.3591L98.3591 65L102 68.6409Z"></path>
<path fill="#1E1E2C" d="M14 67.8006L6.80173 75L4 72.1994L11.1998 65L14 67.8006Z"></path>
<path fill="#1E1E2C" d="M48 91.4002L44.4002 95L43 93.5998L46.5998 90L48 91.4002Z"></path>
<path fill="#1E1E2C" d="M27 67.4002L23.4002 71L22 69.5998L25.5998 66L27 67.4002Z"></path>
<path fill="#F3E300" d="M51 2.80062L43.8017 10L41 7.19938L48.1998 0L51 2.80062Z"></path>
</svg>
